<mxfile host="app.diagrams.net" modified="2023-11-17T05:18:56.757Z" agent="Mozilla/5.0 (Windows NT 10.0; Win64; x64) AppleWebKit/537.36 (KHTML, like Gecko) Chrome/105.0.0.0 Safari/537.36 Edg/105.0.1343.50" etag="rdNYkbAzubJnXv1cFz3g" version="22.1.2" type="github">
  <diagram id="prtHgNgQTEPvFCAcTncT" name="Page-1">
    <mxGraphModel dx="784" dy="430" grid="1" gridSize="10" guides="1" tooltips="1" connect="1" arrows="1" fold="1" page="1" pageScale="1" pageWidth="827" pageHeight="1169" math="0" shadow="0">
      <root>
        <mxCell id="0" />
        <mxCell id="1" parent="0" />
        <mxCell id="VH6RRAhwsbcZhpfBHV_4-19" value="" style="rounded=1;whiteSpace=wrap;html=1;fillColor=#e9e5ff;strokeColor=none;" vertex="1" parent="1">
          <mxGeometry x="630" y="80" width="150" height="70" as="geometry" />
        </mxCell>
        <mxCell id="VH6RRAhwsbcZhpfBHV_4-20" value="" style="rounded=1;whiteSpace=wrap;html=1;strokeColor=none;fillColor=#9581f7;" vertex="1" parent="1">
          <mxGeometry x="665" y="95" width="80" height="40" as="geometry" />
        </mxCell>
        <mxCell id="VH6RRAhwsbcZhpfBHV_4-21" value="" style="rounded=1;whiteSpace=wrap;html=1;fillColor=#c1faf0;strokeColor=none;" vertex="1" parent="1">
          <mxGeometry x="630" y="170" width="150" height="70" as="geometry" />
        </mxCell>
        <mxCell id="VH6RRAhwsbcZhpfBHV_4-22" value="" style="rounded=1;whiteSpace=wrap;html=1;strokeColor=none;fillColor=#00bac7;" vertex="1" parent="1">
          <mxGeometry x="665" y="185" width="80" height="40" as="geometry" />
        </mxCell>
        <mxCell id="VH6RRAhwsbcZhpfBHV_4-23" value="" style="rounded=1;whiteSpace=wrap;html=1;fillColor=#dde7fd;strokeColor=none;" vertex="1" parent="1">
          <mxGeometry x="630" y="270" width="150" height="70" as="geometry" />
        </mxCell>
        <mxCell id="VH6RRAhwsbcZhpfBHV_4-24" value="" style="rounded=1;whiteSpace=wrap;html=1;strokeColor=none;fillColor=#6d99f1;" vertex="1" parent="1">
          <mxGeometry x="665" y="285" width="80" height="40" as="geometry" />
        </mxCell>
        <mxCell id="VH6RRAhwsbcZhpfBHV_4-29" value="" style="rounded=1;whiteSpace=wrap;html=1;fillColor=#dde7fd;strokeColor=none;" vertex="1" parent="1">
          <mxGeometry x="150" y="350" width="390" height="120" as="geometry" />
        </mxCell>
        <mxCell id="VH6RRAhwsbcZhpfBHV_4-30" value="消息中间件" style="rounded=1;whiteSpace=wrap;html=1;strokeColor=none;fillColor=#6d99f1;fontColor=#ffffff;" vertex="1" parent="1">
          <mxGeometry x="170" y="390" width="130" height="30" as="geometry" />
        </mxCell>
        <mxCell id="VH6RRAhwsbcZhpfBHV_4-31" value="nanomsg" style="rounded=1;whiteSpace=wrap;html=1;strokeColor=none;fillColor=#6d99f1;fontColor=#ffffff;" vertex="1" parent="1">
          <mxGeometry x="170" y="430" width="60" height="30" as="geometry" />
        </mxCell>
        <mxCell id="VH6RRAhwsbcZhpfBHV_4-32" value="DDS" style="rounded=1;whiteSpace=wrap;html=1;strokeColor=none;fillColor=#6d99f1;fontColor=#ffffff;" vertex="1" parent="1">
          <mxGeometry x="240" y="430" width="60" height="30" as="geometry" />
        </mxCell>
        <mxCell id="VH6RRAhwsbcZhpfBHV_4-33" value="mqtt抽象层" style="rounded=1;whiteSpace=wrap;html=1;strokeColor=none;fillColor=#6d99f1;fontColor=#ffffff;" vertex="1" parent="1">
          <mxGeometry x="330" y="390" width="130" height="30" as="geometry" />
        </mxCell>
        <mxCell id="VH6RRAhwsbcZhpfBHV_4-34" value="mos" style="rounded=1;whiteSpace=wrap;html=1;strokeColor=none;fillColor=#6d99f1;fontColor=#ffffff;" vertex="1" parent="1">
          <mxGeometry x="330" y="430" width="60" height="30" as="geometry" />
        </mxCell>
        <mxCell id="VH6RRAhwsbcZhpfBHV_4-35" value="aws sdk" style="rounded=1;whiteSpace=wrap;html=1;strokeColor=none;fillColor=#6d99f1;fontColor=#ffffff;" vertex="1" parent="1">
          <mxGeometry x="400" y="430" width="60" height="30" as="geometry" />
        </mxCell>
      </root>
    </mxGraphModel>
  </diagram>
</mxfile>
